<svg xmlns="http://www.w3.org/2000/svg" width="22" height="22" viewBox="0 0 22 22"><defs><style>.a{fill:none;}.b{fill:#fb8e50;}</style></defs><g transform="translate(0 -0.4)"><rect class="a" width="22" height="22" transform="translate(0 0.4)"/><g transform="translate(2.8 1.867)"><path class="b" d="M16.067,18.272H4.867V6.867H11.4V5H4.867A1.872,1.872,0,0,0,3,6.867v11.2a1.872,1.872,0,0,0,1.867,1.867h11.2a1.872,1.872,0,0,0,1.867-1.867V11.533H16.067Z" transform="translate(-3 -2.2)"/><path class="b" d="M18.667,2H16.8V4.8H14c.009.009,0,1.867,0,1.867h2.8V9.457c.009.009,1.867,0,1.867,0V6.667h2.8V4.8h-2.8Z" transform="translate(-3.733 -2)"/><rect class="b" width="7" height="2" transform="translate(4.2 6.533)"/><path class="b" d="M7,12v1.867h7.467V12H7Z" transform="translate(-3.267 -2.667)"/><rect class="b" width="7" height="1" transform="translate(4.2 12.533)"/></g></g></svg>